External Loads File
version=1
nRows=94
nColumns=13
Range=5.000000e-03-10 seconds
endheader
time 	forceRightX 	forceRightY 	forceRightZ 	pointRightX 	pointRightY 	pointRightZ 	forceLeftX 	forceLeftY 	forceLeftZ 	pointLeftX 	pointLeftY 	pointLeftZ 		
0.005000 15.200095 144.999283 -0.000000 0.139637 0.180920 -0.147458 2.814354 115.062025 -0.000000 0.328365 0.476742 -0.380869
0.010000 15.099424 144.689286 -0.000000 0.139673 0.180929 -0.147457 2.087743 114.325934 -0.000000 0.328340 0.476764 -0.380872
0.015000 15.001948 144.361077 -0.000000 0.139715 0.180916 -0.147459 1.364808 113.544638 -0.000000 0.328316 0.476788 -0.380868
0.020000 14.944675 144.031730 -0.000000 0.139742 0.180909 -0.147462 0.670616 112.716698 -0.000000 0.328291 0.476827 -0.380875
0.025000 14.919651 143.717133 -0.000000 0.139776 0.180882 -0.147482 -0.013096 111.825254 -0.000000 0.328247 0.476880 -0.380927
0.030000 14.962596 143.409945 -0.000000 0.139818 0.180934 -0.147481 -0.646195 110.889888 -0.000000 0.328242 0.476947 -0.380872
0.035000 15.008069 143.093738 -0.000000 0.139850 0.180908 -0.147474 -1.238824 109.974045 -0.000000 0.328216 0.477028 -0.380874
0.040000 15.063948 142.741794 -0.000000 0.139871 0.180897 -0.147472 -1.728196 109.168904 -0.000000 0.328204 0.477123 -0.380863
0.045000 15.106728 142.347140 -0.000000 0.139875 0.180892 -0.147474 -2.085727 108.556446 -0.000000 0.328193 0.477232 -0.380869
0.050000 15.117917 141.922898 -0.000000 0.139897 0.180890 -0.147473 -2.304733 108.184216 -0.000000 0.328194 0.477353 -0.380858
0.055000 15.117949 141.494942 -0.000000 0.139906 0.180888 -0.147470 -2.377724 108.070765 -0.000000 0.328191 0.477487 -0.380859
0.060000 15.140901 141.104905 -0.000000 0.139906 0.180865 -0.147469 -2.320402 108.198878 -0.000000 0.328183 0.477634 -0.380853
0.065000 15.227483 140.800256 -0.000000 0.139903 0.180857 -0.147471 -2.154750 108.515549 -0.000000 0.328171 0.477793 -0.380847
0.070000 15.368040 140.611433 -0.000000 0.139908 0.180836 -0.147483 -1.926049 108.948199 -0.000000 0.328159 0.477964 -0.380854
0.075000 15.551941 140.528307 -0.000000 0.139909 0.180839 -0.147477 -1.670800 109.415454 -0.000000 0.328150 0.478147 -0.380855
0.080000 15.736218 140.520730 -0.000000 0.139913 0.180819 -0.147473 -1.457758 109.832627 -0.000000 0.328126 0.478341 -0.380848
0.085000 15.925527 140.565801 -0.000000 0.139897 0.180795 -0.147477 -1.329943 110.116799 -0.000000 0.328103 0.478546 -0.380842
0.090000 16.112100 140.668639 -0.000000 0.139902 0.180795 -0.147481 -1.326264 110.213540 -0.000000 0.328092 0.478763 -0.380840
0.095000 16.282593 140.839892 -0.000000 0.139898 0.180780 -0.147461 -1.450353 110.126523 -0.000000 0.328060 0.478990 -0.380841
0.100000 16.440222 141.069268 -0.000000 0.139896 0.180771 -0.147465 -1.659116 109.907393 -0.000000 0.328050 0.479227 -0.380847
0.105000 16.555574 141.332730 -0.000000 0.139900 0.180770 -0.147468 -1.917723 109.631858 -0.000000 0.328022 0.479474 -0.380845
0.110000 16.635655 141.594777 -0.000000 0.139894 0.180757 -0.147470 -2.167122 109.366519 -0.000000 0.328036 0.479732 -0.380884
0.115000 16.620563 141.823320 -0.000000 0.139893 0.180746 -0.147453 -2.414928 109.145702 -0.000000 0.327974 0.479999 -0.380836
0.120000 16.537758 141.979654 -0.000000 0.139903 0.180730 -0.147467 -2.609897 108.989658 -0.000000 0.327953 0.480275 -0.380848
0.125000 16.391297 142.052104 -0.000000 0.139905 0.180715 -0.147459 -2.734269 108.912104 -0.000000 0.327931 0.480560 -0.380848
0.130000 16.210591 142.063297 -0.000000 0.139921 0.180710 -0.147475 -2.767052 108.929980 -0.000000 0.327899 0.480854 -0.380847
0.135000 16.047887 142.053237 -0.000000 0.139930 0.180683 -0.147470 -2.676968 109.066216 -0.000000 0.327874 0.481157 -0.380842
0.140000 15.944634 142.052480 -0.000000 0.139947 0.180686 -0.147475 -2.452292 109.322643 -0.000000 0.327860 0.481467 -0.380842
0.145000 15.889143 142.074618 -0.000000 0.139972 0.180666 -0.147465 -2.129207 109.672004 -0.000000 0.327826 0.481786 -0.380846
0.150000 15.882685 142.109212 -0.000000 0.139985 0.180657 -0.147470 -1.734437 110.061370 -0.000000 0.327798 0.482112 -0.380843
0.155000 15.874590 142.130795 -0.000000 0.140012 0.180636 -0.147477 -1.338690 110.415307 -0.000000 0.327778 0.482446 -0.380842
0.160000 15.830082 142.103833 -0.000000 0.140032 0.180628 -0.147490 -0.999958 110.673544 -0.000000 0.327736 0.482787 -0.380849
0.165000 15.721937 142.006414 -0.000000 0.140076 0.180599 -0.147483 -0.769843 110.812375 -0.000000 0.327701 0.483134 -0.380852
0.170000 15.571459 141.836677 -0.000000 0.140095 0.180578 -0.147482 -0.661202 110.836086 -0.000000 0.327660 0.483489 -0.380854
0.175000 15.382002 141.609567 -0.000000 0.140119 0.180562 -0.147486 -0.693949 110.751136 -0.000000 0.327619 0.483849 -0.380855
0.180000 15.166631 141.342528 -0.000000 0.140159 0.180546 -0.147486 -0.882860 110.529335 -0.000000 0.327589 0.484216 -0.380861
0.185000 14.953101 141.045626 -0.000000 0.140185 0.180541 -0.147492 -1.228766 110.122045 -0.000000 0.327571 0.484588 -0.380865
0.190000 14.732024 140.714757 -0.000000 0.140222 0.180515 -0.147486 -1.732851 109.511463 -0.000000 0.327550 0.484966 -0.380858
0.195000 14.511622 140.334588 -0.000000 0.140257 0.180490 -0.147491 -2.341420 108.740405 -0.000000 0.327529 0.485349 -0.380851
0.200000 14.288372 139.906656 -0.000000 0.140284 0.180463 -0.147492 -2.977897 107.916888 -0.000000 0.327515 0.485737 -0.380869
0.205000 14.056460 139.454397 -0.000000 0.140315 0.180457 -0.147500 -3.573962 107.168296 -0.000000 0.327498 0.486130 -0.380859
0.210000 13.821405 139.005598 -0.000000 0.140342 0.180431 -0.147500 -4.088099 106.581318 -0.000000 0.327478 0.486527 -0.380859
0.215000 13.614740 138.581402 -0.000000 0.140382 0.180403 -0.147504 -4.485637 106.189537 -0.000000 0.327497 0.486929 -0.380925
0.220000 13.455733 138.204386 -0.000000 0.140408 0.180401 -0.147512 -4.760851 105.978938 -0.000000 0.327504 0.487334 -0.380920
0.225000 13.340688 137.896539 -0.000000 0.140452 0.180382 -0.147508 -4.927397 105.915937 -0.000000 0.327500 0.487743 -0.380911
0.230000 13.279324 137.663477 -0.000000 0.140472 0.180377 -0.147505 -4.967176 105.980472 -0.000000 0.327460 0.488155 -0.380856
0.235000 13.263078 137.492235 -0.000000 0.140508 0.180374 -0.147517 -4.868523 106.159260 -0.000000 0.327456 0.488570 -0.380858
0.240000 13.270170 137.362509 -0.000000 0.140530 0.180359 -0.147515 -4.638267 106.448579 -0.000000 0.327467 0.488988 -0.380843
0.245000 13.272797 137.262785 -0.000000 0.140550 0.180344 -0.147512 -4.297287 106.851489 -0.000000 0.327465 0.489409 -0.380815
0.250000 13.261572 137.183867 -0.000000 0.140571 0.180331 -0.147518 -3.869704 107.349549 -0.000000 0.327469 0.489832 -0.380791
0.255000 13.205978 137.105949 -0.000000 0.140597 0.180331 -0.147511 -3.413264 107.902351 -0.000000 0.327453 0.490257 -0.380794
0.260000 13.096159 137.001102 -0.000000 0.140608 0.180325 -0.147509 -2.985278 108.452106 -0.000000 0.327437 0.490683 -0.380790
0.265000 12.914197 136.857800 -0.000000 0.140630 0.180313 -0.147517 -2.665567 108.916674 -0.000000 0.327404 0.491111 -0.380820
0.270000 12.692183 136.675744 -0.000000 0.140638 0.180312 -0.147518 -2.490395 109.210361 -0.000000 0.327384 0.491540 -0.380838
0.275000 12.430139 136.463994 -0.000000 0.140655 0.180312 -0.147518 -2.495970 109.264174 -0.000000 0.327364 0.491970 -0.380860
0.280000 12.147112 136.238231 -0.000000 0.140667 0.180315 -0.147525 -2.666788 109.063926 -0.000000 0.327349 0.492401 -0.380859
0.285000 11.855548 136.017768 -0.000000 0.140680 0.180304 -0.147516 -2.960350 108.667205 -0.000000 0.327347 0.492832 -0.380856
0.290000 11.560159 135.807031 -0.000000 0.140674 0.180309 -0.147518 -3.329758 108.152197 -0.000000 0.327337 0.493263 -0.380860
0.295000 11.239671 135.595863 -0.000000 0.140682 0.180317 -0.147519 -3.746864 107.591825 -0.000000 0.327329 0.493694 -0.380856
0.300000 10.898631 135.380803 -0.000000 0.140682 0.180314 -0.147513 -4.168792 107.063642 -0.000000 0.327332 0.494124 -0.380862
0.305000 10.554719 135.186278 -0.000000 0.140683 0.180319 -0.147518 -4.559906 106.635484 -0.000000 0.327326 0.494554 -0.380857
0.310000 10.250962 135.052757 -0.000000 0.140680 0.180316 -0.147521 -4.875233 106.367254 -0.000000 0.327325 0.494983 -0.380856
0.315000 10.026960 135.011433 -0.000000 0.140664 0.180304 -0.147520 -5.088136 106.305949 -0.000000 0.327325 0.495410 -0.380850
0.320000 9.905798 135.067548 -0.000000 0.140653 0.180314 -0.147515 -5.204796 106.470369 -0.000000 0.327331 0.495836 -0.380858
0.325000 9.887349 135.205671 -0.000000 0.140641 0.180317 -0.147527 -5.247091 106.858042 -0.000000 0.327342 0.496260 -0.380851
0.330000 9.964803 135.406196 -0.000000 0.140634 0.180314 -0.147514 -5.227792 107.436423 -0.000000 0.327353 0.496682 -0.380853
0.335000 10.145213 135.650797 -0.000000 0.140609 0.180321 -0.147517 -5.129526 108.137523 -0.000000 0.327391 0.497102 -0.380913
0.340000 10.356529 135.923291 -0.000000 0.140599 0.180330 -0.147527 -4.980602 108.873243 -0.000000 0.327358 0.497519 -0.380843
0.345000 10.600672 136.201259 -0.000000 0.140586 0.180328 -0.147515 -4.762955 109.551752 -0.000000 0.327368 0.497933 -0.380851
0.350000 10.826836 136.476605 -0.000000 0.140574 0.180334 -0.147522 -4.533005 110.085040 -0.000000 0.327383 0.498344 -0.380827
0.355000 10.998761 136.749080 -0.000000 0.140563 0.180345 -0.147524 -4.356645 110.404120 -0.000000 0.327393 0.498752 -0.380796
0.360000 11.100250 137.014989 -0.000000 0.140560 0.180358 -0.147523 -4.281510 110.470784 -0.000000 0.327411 0.499156 -0.380818
0.365000 11.115737 137.266423 -0.000000 0.140554 0.180353 -0.147520 -4.337196 110.286087 -0.000000 0.327406 0.499555 -0.380816
0.370000 11.050764 137.500884 -0.000000 0.140562 0.180329 -0.147526 -4.522082 109.883425 -0.000000 0.327395 0.499951 -0.380823
0.375000 10.933227 137.729638 -0.000000 0.140560 0.180336 -0.147531 -4.808688 109.328428 -0.000000 0.327361 0.500342 -0.380846
0.380000 10.776161 137.967919 -0.000000 0.140577 0.180337 -0.147518 -5.178813 108.704194 -0.000000 0.327334 0.500728 -0.380871
0.385000 10.605953 138.213013 -0.000000 0.140588 0.180348 -0.147522 -5.595823 108.084859 -0.000000 0.327313 0.501110 -0.380859
0.390000 10.425128 138.442630 -0.000000 0.140608 0.180352 -0.147530 -6.013374 107.543099 -0.000000 0.327304 0.501485 -0.380846
0.395000 10.231161 138.623340 -0.000000 0.140632 0.180339 -0.147527 -6.369726 107.156390 -0.000000 0.327286 0.501856 -0.380844
0.400000 10.038385 138.725079 -0.000000 0.140670 0.180353 -0.147530 -6.601937 106.989550 -0.000000 0.327273 0.502220 -0.380847
0.405000 9.852409 138.734641 -0.000000 0.140702 0.180352 -0.147536 -6.686829 107.069469 -0.000000 0.327262 0.502578 -0.380851
0.410000 9.676111 138.654749 -0.000000 0.140738 0.180343 -0.147526 -6.651988 107.358968 -0.000000 0.327255 0.502930 -0.380838
0.415000 9.511828 138.499229 -0.000000 0.140780 0.180346 -0.147532 -6.557667 107.777455 -0.000000 0.327242 0.503275 -0.380843
0.420000 9.368205 138.293122 -0.000000 0.140821 0.180341 -0.147521 -6.459769 108.238431 -0.000000 0.327239 0.503614 -0.380844
0.425000 9.268036 138.068245 -0.000000 0.140848 0.180349 -0.147529 -6.397445 108.645477 -0.000000 0.327243 0.503945 -0.380836
0.430000 9.217618 137.850352 -0.000000 0.140881 0.180361 -0.147531 -6.412720 108.887390 -0.000000 0.327250 0.504268 -0.380839
0.435000 9.218678 137.644728 -0.000000 0.140915 0.180345 -0.147529 -6.525523 108.865355 -0.000000 0.327255 0.504584 -0.380839
0.440000 9.287056 137.430286 -0.000000 0.140939 0.180348 -0.147507 -6.705868 108.545588 -0.000000 0.327308 0.504891 -0.380901
0.445000 9.355359 137.176171 -0.000000 0.140975 0.180353 -0.147512 -6.956612 107.983918 -0.000000 0.327312 0.505191 -0.380908
0.450000 9.406662 136.861758 -0.000000 0.140993 0.180351 -0.147521 -7.226904 107.304885 -0.000000 0.327279 0.505481 -0.380841
0.455000 9.432158 136.501596 -0.000000 0.141023 0.180353 -0.147514 -7.456255 106.655750 -0.000000 0.327286 0.505763 -0.380833
0.460000 9.405017 136.135648 -0.000000 0.141032 0.180382 -0.147525 -7.607385 106.155472 -0.000000 0.327304 0.506036 -0.380837
0.465000 9.280647 135.808784 -0.000000 0.141038 0.180380 -0.147526 -7.681605 105.872670 -0.000000 0.327316 0.506299 -0.380837
0.470000 9.087377 135.562181 -0.000000 0.141035 0.180388 -0.147525 -7.652273 105.853392 -0.000000 0.327338 0.506553 -0.380834
